<svg width="1280" height="720" viewBox="0 0 1280 720" fill="none" xmlns="http://www.w3.org/2000/svg">
<path fill-rule="evenodd" clip-rule="evenodd" d="M1177.47 -181.162C1177.47 -181.872 1177.84 -182.529 1178.46 -182.888L1270.37 -236.723C1271.71 -237.504 1273.39 -236.542 1273.39 -234.997V230.785C1273.39 231.495 1273.01 232.152 1272.4 232.511L1180.48 286.346C1179.15 287.127 1177.47 286.165 1177.47 284.62V-181.162ZM0 489.56C0 488.847 0.379606 488.188 0.996354 487.83L99.5287 430.666C100.862 429.892 102.532 430.854 102.532 432.396V898.189C102.532 898.902 102.153 899.561 101.536 899.919L3.00364 957.084C1.67031 957.857 0 956.895 0 955.354V489.56ZM185.22 384.148C185.22 383.428 185.607 382.763 186.233 382.408L1091.79 -131.053C1093.13 -131.809 1094.78 -130.846 1094.78 -129.313V334.933C1094.78 335.653 1094.39 336.318 1093.77 336.673L188.206 850.134C186.873 850.89 185.22 849.927 185.22 848.394V384.148ZM567.762 -23.5928C567.762 -25.1242 566.112 -26.0874 564.778 -25.3341L1.0161 293.224C0.38824 293.578 0 294.244 0 294.965V389.188C0 390.72 1.65064 391.683 2.98389 390.93L566.746 72.3718C567.374 72.017 567.762 71.3517 567.762 70.6306V-23.5928ZM1280 329.893C1280 328.362 1278.35 327.398 1277.02 328.152L713.254 646.71C712.626 647.064 712.238 647.73 712.238 648.451V742.674C712.238 744.206 713.888 745.169 715.221 744.415L1278.98 425.858C1279.61 425.503 1280 424.838 1280 424.116V329.893Z" fill="url(#paint0_linear)"/>
<defs>
<linearGradient id="paint0_linear" x1="640" y1="-233.674" x2="640" y2="957.365" gradientUnits="userSpaceOnUse">
<stop stop-color="#E61C44"/>
<stop offset="1" stop-color="#E61C44" stop-opacity="0"/>
</linearGradient>
</defs>
</svg>
